Coordinates
version=1
nRows=5
nColumns=40
inDegrees=yes

Units are S.I. units (second, meters, Newtons, ...)
Angles are in degrees.

endheader
time	pelvis_tilt	pelvis_list	pelvis_rotation	pelvis_tx	pelvis_ty	pelvis_tz	hip_flexion_r	hip_adduction_r	hip_rotation_r	knee_angle_r	knee_angle_r_beta	ankle_angle_r	subtalar_angle_r	mtp_angle_r	hip_flexion_l	hip_adduction_l	hip_rotation_l	knee_angle_l	knee_angle_l_beta	ankle_angle_l	subtalar_angle_l	mtp_angle_l	lumbar_extension	lumbar_bending	lumbar_rotation	arm_flex_r	arm_add_r	arm_rot_r	elbow_flex_r	pro_sup_r	wrist_flex_r	wrist_dev_r	arm_flex_l	arm_add_l	arm_rot_l	elbow_flex_l	pro_sup_l	wrist_flex_l	wrist_dev_l
     58.51250000	     -6.99348012	     -6.20499880	      0.00412090	      1.09755634	      0.91639564	      0.47156157	      0.94573875	      0.50862180	    -13.91904075	     24.11033274	     24.11033274	     17.09671590	      4.86842380	     -6.34068184	     31.71732534	     -9.96487986	     -4.60718265	     27.16416126	     27.16416126	      5.82512494	    -15.38822200	      7.38127166	     -9.92460211	      5.72208019	      3.31993209	     41.13373346	    -14.84394868	     -0.79394275	    123.06046729	     44.03846824	      0.00000000	      0.00000000	    -16.69826843	     -8.75351983	      2.80324483	     26.49576619	     45.07881097	      0.00000000	      0.00000000
     58.52371429	     -7.13004800	     -5.97790777	     -0.05492063	      1.09757606	      0.91773457	      0.46857292	      2.54027433	     -0.36393593	    -13.34976677	     27.57854808	     27.57854808	     15.74775298	      3.00565542	     -7.89939681	     31.03642019	     -9.60868102	     -5.01736791	     26.83174242	     26.83174242	      6.46922441	    -15.04374147	      6.99867272	     -9.69084588	      5.54177917	      3.15400882	     39.61025964	    -15.19075842	     -0.84342326	    123.41674305	     44.03000820	      0.00000000	      0.00000000	    -15.53513406	     -8.76270020	      2.78539733	     26.80614208	     45.11435606	      0.00000000	      0.00000000
     58.53492857	     -7.11585724	     -5.76871981	     -0.11997499	      1.09750438	      0.91928765	      0.46575327	      4.10800650	     -1.21088602	    -12.82795299	     31.19008816	     31.19008816	     14.07290923	      1.05882419	     -9.23948568	     30.20157093	     -9.29301417	     -5.50961912	     26.49507529	     26.49507529	      6.97660333	    -14.76553710	      6.64378496	     -9.71146385	      5.38453662	      2.95744078	     37.90957410	    -15.42067866	     -0.83987942	    123.51422924	     44.02509130	      0.00000000	      0.00000000	    -14.28322514	     -8.84668514	      2.73477761	     27.21153036	     45.15330662	      0.00000000	      0.00000000
     58.54614286	     -7.17147450	     -5.72038699	     -0.16251925	      1.09723169	      0.92061121	      0.46318913	      5.68248659	     -1.64986811	    -11.96459755	     34.22031154	     34.22031154	      9.70200114	     -3.02347966	    -16.80173065	     29.41921693	     -9.11751039	     -5.82917311	     26.01792845	     26.01792845	      7.02979109	    -14.59439773	      5.29722604	     -9.69605507	      5.37651382	      3.66708486	     35.36146003	    -16.34824236	     -2.25166928	    124.70311172	     44.07603948	      0.00000000	      0.00000000	    -12.33117147	     -8.96556160	      2.63214069	     27.25231922	     45.28909542	      0.00000000	      0.00000000
     58.55735714	     -7.22224527	     -5.56587202	     -0.23370912	      1.09668488	      0.92181971	      0.46071181	      7.74640344	     -2.33712086	    -11.28914050	     38.32334030	     38.32334030	      7.70739836	     -5.49032017	    -16.83695352	     28.65152678	     -8.83302569	     -6.16460407	     25.59095819	     25.59095819	      7.43955753	    -14.33771845	      4.99373121	     -9.66207916	      5.26843413	      3.31896974	     33.59117129	    -16.51268960	     -2.02848615	    124.04911351	     44.08798870	      0.00000000	      0.00000000	    -11.10937790	     -9.06625080	      2.55454132	     27.95204474	     45.33427001	      0.00000000	      0.00000000
